<?xml version="1.0" encoding="utf-8" standalone="no"?>
<!DOCTYPE svg PUBLIC "-//W3C//DTD SVG 1.1//EN"
  "http://www.w3.org/Graphics/SVG/1.1/DTD/svg11.dtd">
<svg xmlns:xlink="http://www.w3.org/1999/xlink" width="480.525pt" height="211.582125pt" viewBox="0 0 480.525 211.582125" xmlns="http://www.w3.org/2000/svg" version="1.1">
 <metadata>
  <rdf:RDF xmlns:dc="http://purl.org/dc/elements/1.1/" xmlns:cc="http://creativecommons.org/ns#" xmlns:rdf="http://www.w3.org/1999/02/22-rdf-syntax-ns#">
   <cc:Work>
    <dc:type rdf:resource="http://purl.org/dc/dcmitype/StillImage"/>
    <dc:date>2026-03-23T19:27:52.109437</dc:date>
    <dc:format>image/svg+xml</dc:format>
    <dc:creator>
     <cc:Agent>
      <dc:title>Matplotlib v3.9.2, https://matplotlib.org/</dc:title>
     </cc:Agent>
    </dc:creator>
   </cc:Work>
  </rdf:RDF>
 </metadata>
 <defs>
  <style type="text/css">*{stroke-linejoin: round; stroke-linecap: butt}</style>
 </defs>
 <g id="figure_1">
  <g id="patch_1">
   <path d="M 0 211.582125 
L 480.525 211.582125 
L 480.525 0 
L 0 0 
z
" style="fill: #ffffff"/>
  </g>
  <g id="axes_1">
   <g id="patch_2">
    <path d="M 26.925 187.704 
L 158.219118 187.704 
L 158.219118 60.192 
L 26.925 60.192 
z
" style="fill: #ffffff"/>
   </g>
   <g id="patch_3">
    <path d="M 32.892914 187.704 
L 38.860829 187.704 
L 38.860829 179.029714 
L 32.892914 179.029714 
z
" clip-path="url(#p89f9935433)" style="fill: #1f77b4"/>
   </g>
   <g id="patch_4">
    <path d="M 38.860829 187.704 
L 44.828743 187.704 
L 44.828743 170.355429 
L 38.860829 170.355429 
z
" clip-path="url(#p89f9935433)" style="fill: #1f77b4"/>
   </g>
   <g id="patch_5">
    <path d="M 44.828743 187.704 
L 50.796658 187.704 
L 50.796658 167.877061 
L 44.828743 167.877061 
z
" clip-path="url(#p89f9935433)" style="fill: #1f77b4"/>
   </g>
   <g id="patch_6">
    <path d="M 50.796658 187.704 
L 56.764572 187.704 
L 56.764572 143.093388 
L 50.796658 143.093388 
z
" clip-path="url(#p89f9935433)" style="fill: #1f77b4"/>
   </g>
   <g id="patch_7">
    <path d="M 56.764572 187.704 
L 62.732487 187.704 
L 62.732487 128.223184 
L 56.764572 128.223184 
z
" clip-path="url(#p89f9935433)" style="fill: #1f77b4"/>
   </g>
   <g id="patch_8">
    <path d="M 62.732487 187.704 
L 68.700401 187.704 
L 68.700401 107.157061 
L 62.732487 107.157061 
z
" clip-path="url(#p89f9935433)" style="fill: #1f77b4"/>
   </g>
   <g id="patch_9">
    <path d="M 68.700401 187.704 
L 74.668316 187.704 
L 74.668316 91.047673 
L 68.700401 91.047673 
z
" clip-path="url(#p89f9935433)" style="fill: #1f77b4"/>
   </g>
   <g id="patch_10">
    <path d="M 74.668316 187.704 
L 80.63623 187.704 
L 80.63623 79.89502 
L 74.668316 79.89502 
z
" clip-path="url(#p89f9935433)" style="fill: #1f77b4"/>
   </g>
   <g id="patch_11">
    <path d="M 80.63623 187.704 
L 86.604144 187.704 
L 86.604144 66.264 
L 80.63623 66.264 
z
" clip-path="url(#p89f9935433)" style="fill: #1f77b4"/>
   </g>
   <g id="patch_12">
    <path d="M 86.604144 187.704 
L 92.572059 187.704 
L 92.572059 71.220735 
L 86.604144 71.220735 
z
" clip-path="url(#p89f9935433)" style="fill: #1f77b4"/>
   </g>
   <g id="patch_13">
    <path d="M 92.572059 187.704 
L 98.539973 187.704 
L 98.539973 79.89502 
L 92.572059 79.89502 
z
" clip-path="url(#p89f9935433)" style="fill: #1f77b4"/>
   </g>
   <g id="patch_14">
    <path d="M 98.539973 187.704 
L 104.507888 187.704 
L 104.507888 109.635429 
L 98.539973 109.635429 
z
" clip-path="url(#p89f9935433)" style="fill: #1f77b4"/>
   </g>
   <g id="patch_15">
    <path d="M 104.507888 187.704 
L 110.475802 187.704 
L 110.475802 89.80849 
L 104.507888 89.80849 
z
" clip-path="url(#p89f9935433)" style="fill: #1f77b4"/>
   </g>
   <g id="patch_16">
    <path d="M 110.475802 187.704 
L 116.443717 187.704 
L 116.443717 129.462367 
L 110.475802 129.462367 
z
" clip-path="url(#p89f9935433)" style="fill: #1f77b4"/>
   </g>
   <g id="patch_17">
    <path d="M 116.443717 187.704 
L 122.411631 187.704 
L 122.411631 124.505633 
L 116.443717 124.505633 
z
" clip-path="url(#p89f9935433)" style="fill: #1f77b4"/>
   </g>
   <g id="patch_18">
    <path d="M 122.411631 187.704 
L 128.379545 187.704 
L 128.379545 144.332571 
L 122.411631 144.332571 
z
" clip-path="url(#p89f9935433)" style="fill: #1f77b4"/>
   </g>
   <g id="patch_19">
    <path d="M 128.379545 187.704 
L 134.34746 187.704 
L 134.34746 138.136653 
L 128.379545 138.136653 
z
" clip-path="url(#p89f9935433)" style="fill: #1f77b4"/>
   </g>
   <g id="patch_20">
    <path d="M 134.34746 187.704 
L 140.315374 187.704 
L 140.315374 156.724408 
L 134.34746 156.724408 
z
" clip-path="url(#p89f9935433)" style="fill: #1f77b4"/>
   </g>
   <g id="patch_21">
    <path d="M 140.315374 187.704 
L 146.283289 187.704 
L 146.283289 162.920327 
L 140.315374 162.920327 
z
" clip-path="url(#p89f9935433)" style="fill: #1f77b4"/>
   </g>
   <g id="patch_22">
    <path d="M 146.283289 187.704 
L 152.251203 187.704 
L 152.251203 175.312163 
L 146.283289 175.312163 
z
" clip-path="url(#p89f9935433)" style="fill: #1f77b4"/>
   </g>
   <g id="matplotlib.axis_1">
    <g id="xtick_1">
     <g id="line2d_1">
      <defs>
       <path id="m2f66700e71" d="M 0 0 
L 0 3.5 
" style="stroke: #000000; stroke-width: 0.8"/>
      </defs>
      <g>
       <use xlink:href="#m2f66700e71" x="72.92528" y="187.704" style="stroke: #000000; stroke-width: 0.8"/>
      </g>
     </g>
     <g id="text_1">
      <!-- 0.10 -->
      <g transform="translate(61.792467 202.302438) scale(0.1 -0.1)">
       <defs>
        <path id="DejaVuSans-30" d="M 2034 4250 
Q 1547 4250 1301 3770 
Q 1056 3291 1056 2328 
Q 1056 1369 1301 889 
Q 1547 409 2034 409 
Q 2525 409 2770 889 
Q 3016 1369 3016 2328 
Q 3016 3291 2770 3770 
Q 2525 4250 2034 4250 
z
M 2034 4750 
Q 2819 4750 3233 4129 
Q 3647 3509 3647 2328 
Q 3647 1150 3233 529 
Q 2819 -91 2034 -91 
Q 1250 -91 836 529 
Q 422 1150 422 2328 
Q 422 3509 836 4129 
Q 1250 4750 2034 4750 
z
" transform="scale(0.015625)"/>
        <path id="DejaVuSans-2e" d="M 684 794 
L 1344 794 
L 1344 0 
L 684 0 
L 684 794 
z
" transform="scale(0.015625)"/>
        <path id="DejaVuSans-31" d="M 794 531 
L 1825 531 
L 1825 4091 
L 703 3866 
L 703 4441 
L 1819 4666 
L 2450 4666 
L 2450 531 
L 3481 531 
L 3481 0 
L 794 0 
L 794 531 
z
" transform="scale(0.015625)"/>
       </defs>
       <use xlink:href="#DejaVuSans-30"/>
       <use xlink:href="#DejaVuSans-2e" x="63.623047"/>
       <use xlink:href="#DejaVuSans-31" x="95.410156"/>
       <use xlink:href="#DejaVuSans-30" x="159.033203"/>
      </g>
     </g>
    </g>
    <g id="xtick_2">
     <g id="line2d_2">
      <g>
       <use xlink:href="#m2f66700e71" x="123.499176" y="187.704" style="stroke: #000000; stroke-width: 0.8"/>
      </g>
     </g>
     <g id="text_2">
      <!-- 0.15 -->
      <g transform="translate(112.366364 202.302438) scale(0.1 -0.1)">
       <defs>
        <path id="DejaVuSans-35" d="M 691 4666 
L 3169 4666 
L 3169 4134 
L 1269 4134 
L 1269 2991 
Q 1406 3038 1543 3061 
Q 1681 3084 1819 3084 
Q 2600 3084 3056 2656 
Q 3513 2228 3513 1497 
Q 3513 744 3044 326 
Q 2575 -91 1722 -91 
Q 1428 -91 1123 -41 
Q 819 9 494 109 
L 494 744 
Q 775 591 1075 516 
Q 1375 441 1709 441 
Q 2250 441 2565 725 
Q 2881 1009 2881 1497 
Q 2881 1984 2565 2268 
Q 2250 2553 1709 2553 
Q 1456 2553 1204 2497 
Q 953 2441 691 2322 
L 691 4666 
z
" transform="scale(0.015625)"/>
       </defs>
       <use xlink:href="#DejaVuSans-30"/>
       <use xlink:href="#DejaVuSans-2e" x="63.623047"/>
       <use xlink:href="#DejaVuSans-31" x="95.410156"/>
       <use xlink:href="#DejaVuSans-35" x="159.033203"/>
      </g>
     </g>
    </g>
   </g>
   <g id="matplotlib.axis_2">
    <g id="ytick_1">
     <g id="line2d_3">
      <defs>
       <path id="m74c2619387" d="M 0 0 
L -3.5 0 
" style="stroke: #000000; stroke-width: 0.8"/>
      </defs>
      <g>
       <use xlink:href="#m74c2619387" x="26.925" y="187.704" style="stroke: #000000; stroke-width: 0.8"/>
      </g>
     </g>
     <g id="text_3">
      <!-- 0 -->
      <g transform="translate(13.5625 191.503219) scale(0.1 -0.1)">
       <use xlink:href="#DejaVuSans-30"/>
      </g>
     </g>
    </g>
    <g id="ytick_2">
     <g id="line2d_4">
      <g>
       <use xlink:href="#m74c2619387" x="26.925" y="151.146889" style="stroke: #000000; stroke-width: 0.8"/>
      </g>
     </g>
     <g id="text_4">
      <!-- 5 -->
      <g transform="translate(13.5625 154.946108) scale(0.1 -0.1)">
       <use xlink:href="#DejaVuSans-35"/>
      </g>
     </g>
    </g>
    <g id="ytick_3">
     <g id="line2d_5">
      <g>
       <use xlink:href="#m74c2619387" x="26.925" y="114.589779" style="stroke: #000000; stroke-width: 0.8"/>
      </g>
     </g>
     <g id="text_5">
      <!-- 10 -->
      <g transform="translate(7.2 118.388997) scale(0.1 -0.1)">
       <use xlink:href="#DejaVuSans-31"/>
       <use xlink:href="#DejaVuSans-30" x="63.623047"/>
      </g>
     </g>
    </g>
    <g id="ytick_4">
     <g id="line2d_6">
      <g>
       <use xlink:href="#m74c2619387" x="26.925" y="78.032668" style="stroke: #000000; stroke-width: 0.8"/>
      </g>
     </g>
     <g id="text_6">
      <!-- 15 -->
      <g transform="translate(7.2 81.831887) scale(0.1 -0.1)">
       <use xlink:href="#DejaVuSans-31"/>
       <use xlink:href="#DejaVuSans-35" x="63.623047"/>
      </g>
     </g>
    </g>
   </g>
   <g id="line2d_7">
    <path d="M 95.934664 187.704 
L 95.934664 60.192 
" clip-path="url(#p89f9935433)" style="fill: none; stroke-dasharray: 5.55,2.4; stroke-dashoffset: 0; stroke: #ff0000; stroke-width: 1.5"/>
   </g>
   <g id="patch_23">
    <path d="M 26.925 187.704 
L 26.925 60.192 
" style="fill: none; stroke: #000000; stroke-width: 0.8; stroke-linejoin: miter; stroke-linecap: square"/>
   </g>
   <g id="patch_24">
    <path d="M 158.219118 187.704 
L 158.219118 60.192 
" style="fill: none; stroke: #000000; stroke-width: 0.8; stroke-linejoin: miter; stroke-linecap: square"/>
   </g>
   <g id="patch_25">
    <path d="M 26.925 187.704 
L 158.219118 187.704 
" style="fill: none; stroke: #000000; stroke-width: 0.8; stroke-linejoin: miter; stroke-linecap: square"/>
   </g>
   <g id="patch_26">
    <path d="M 26.925 60.192 
L 158.219118 60.192 
" style="fill: none; stroke: #000000; stroke-width: 0.8; stroke-linejoin: miter; stroke-linecap: square"/>
   </g>
   <g id="text_7">
    <!-- Spatial autocorrelation -->
    <g transform="translate(24.312684 40.754625) scale(0.12 -0.12)">
     <defs>
      <path id="DejaVuSans-53" d="M 3425 4513 
L 3425 3897 
Q 3066 4069 2747 4153 
Q 2428 4238 2131 4238 
Q 1616 4238 1336 4038 
Q 1056 3838 1056 3469 
Q 1056 3159 1242 3001 
Q 1428 2844 1947 2747 
L 2328 2669 
Q 3034 2534 3370 2195 
Q 3706 1856 3706 1288 
Q 3706 609 3251 259 
Q 2797 -91 1919 -91 
Q 1588 -91 1214 -16 
Q 841 59 441 206 
L 441 856 
Q 825 641 1194 531 
Q 1563 422 1919 422 
Q 2459 422 2753 634 
Q 3047 847 3047 1241 
Q 3047 1584 2836 1778 
Q 2625 1972 2144 2069 
L 1759 2144 
Q 1053 2284 737 2584 
Q 422 2884 422 3419 
Q 422 4038 858 4394 
Q 1294 4750 2059 4750 
Q 2388 4750 2728 4690 
Q 3069 4631 3425 4513 
z
" transform="scale(0.015625)"/>
      <path id="DejaVuSans-70" d="M 1159 525 
L 1159 -1331 
L 581 -1331 
L 581 3500 
L 1159 3500 
L 1159 2969 
Q 1341 3281 1617 3432 
Q 1894 3584 2278 3584 
Q 2916 3584 3314 3078 
Q 3713 2572 3713 1747 
Q 3713 922 3314 415 
Q 2916 -91 2278 -91 
Q 1894 -91 1617 61 
Q 1341 213 1159 525 
z
M 3116 1747 
Q 3116 2381 2855 2742 
Q 2594 3103 2138 3103 
Q 1681 3103 1420 2742 
Q 1159 2381 1159 1747 
Q 1159 1113 1420 752 
Q 1681 391 2138 391 
Q 2594 391 2855 752 
Q 3116 1113 3116 1747 
z
" transform="scale(0.015625)"/>
      <path id="DejaVuSans-61" d="M 2194 1759 
Q 1497 1759 1228 1600 
Q 959 1441 959 1056 
Q 959 750 1161 570 
Q 1363 391 1709 391 
Q 2188 391 2477 730 
Q 2766 1069 2766 1631 
L 2766 1759 
L 2194 1759 
z
M 3341 1997 
L 3341 0 
L 2766 0 
L 2766 531 
Q 2569 213 2275 61 
Q 1981 -91 1556 -91 
Q 1019 -91 701 211 
Q 384 513 384 1019 
Q 384 1609 779 1909 
Q 1175 2209 1959 2209 
L 2766 2209 
L 2766 2266 
Q 2766 2663 2505 2880 
Q 2244 3097 1772 3097 
Q 1472 3097 1187 3025 
Q 903 2953 641 2809 
L 641 3341 
Q 956 3463 1253 3523 
Q 1550 3584 1831 3584 
Q 2591 3584 2966 3190 
Q 3341 2797 3341 1997 
z
" transform="scale(0.015625)"/>
      <path id="DejaVuSans-74" d="M 1172 4494 
L 1172 3500 
L 2356 3500 
L 2356 3053 
L 1172 3053 
L 1172 1153 
Q 1172 725 1289 603 
Q 1406 481 1766 481 
L 2356 481 
L 2356 0 
L 1766 0 
Q 1100 0 847 248 
Q 594 497 594 1153 
L 594 3053 
L 172 3053 
L 172 3500 
L 594 3500 
L 594 4494 
L 1172 4494 
z
" transform="scale(0.015625)"/>
      <path id="DejaVuSans-69" d="M 603 3500 
L 1178 3500 
L 1178 0 
L 603 0 
L 603 3500 
z
M 603 4863 
L 1178 4863 
L 1178 4134 
L 603 4134 
L 603 4863 
z
" transform="scale(0.015625)"/>
      <path id="DejaVuSans-6c" d="M 603 4863 
L 1178 4863 
L 1178 0 
L 603 0 
L 603 4863 
z
" transform="scale(0.015625)"/>
      <path id="DejaVuSans-20" transform="scale(0.015625)"/>
      <path id="DejaVuSans-75" d="M 544 1381 
L 544 3500 
L 1119 3500 
L 1119 1403 
Q 1119 906 1312 657 
Q 1506 409 1894 409 
Q 2359 409 2629 706 
Q 2900 1003 2900 1516 
L 2900 3500 
L 3475 3500 
L 3475 0 
L 2900 0 
L 2900 538 
Q 2691 219 2414 64 
Q 2138 -91 1772 -91 
Q 1169 -91 856 284 
Q 544 659 544 1381 
z
M 1991 3584 
L 1991 3584 
z
" transform="scale(0.015625)"/>
      <path id="DejaVuSans-6f" d="M 1959 3097 
Q 1497 3097 1228 2736 
Q 959 2375 959 1747 
Q 959 1119 1226 758 
Q 1494 397 1959 397 
Q 2419 397 2687 759 
Q 2956 1122 2956 1747 
Q 2956 2369 2687 2733 
Q 2419 3097 1959 3097 
z
M 1959 3584 
Q 2709 3584 3137 3096 
Q 3566 2609 3566 1747 
Q 3566 888 3137 398 
Q 2709 -91 1959 -91 
Q 1206 -91 779 398 
Q 353 888 353 1747 
Q 353 2609 779 3096 
Q 1206 3584 1959 3584 
z
" transform="scale(0.015625)"/>
      <path id="DejaVuSans-63" d="M 3122 3366 
L 3122 2828 
Q 2878 2963 2633 3030 
Q 2388 3097 2138 3097 
Q 1578 3097 1268 2742 
Q 959 2388 959 1747 
Q 959 1106 1268 751 
Q 1578 397 2138 397 
Q 2388 397 2633 464 
Q 2878 531 3122 666 
L 3122 134 
Q 2881 22 2623 -34 
Q 2366 -91 2075 -91 
Q 1284 -91 818 406 
Q 353 903 353 1747 
Q 353 2603 823 3093 
Q 1294 3584 2113 3584 
Q 2378 3584 2631 3529 
Q 2884 3475 3122 3366 
z
" transform="scale(0.015625)"/>
      <path id="DejaVuSans-72" d="M 2631 2963 
Q 2534 3019 2420 3045 
Q 2306 3072 2169 3072 
Q 1681 3072 1420 2755 
Q 1159 2438 1159 1844 
L 1159 0 
L 581 0 
L 581 3500 
L 1159 3500 
L 1159 2956 
Q 1341 3275 1631 3429 
Q 1922 3584 2338 3584 
Q 2397 3584 2469 3576 
Q 2541 3569 2628 3553 
L 2631 2963 
z
" transform="scale(0.015625)"/>
      <path id="DejaVuSans-65" d="M 3597 1894 
L 3597 1613 
L 953 1613 
Q 991 1019 1311 708 
Q 1631 397 2203 397 
Q 2534 397 2845 478 
Q 3156 559 3463 722 
L 3463 178 
Q 3153 47 2828 -22 
Q 2503 -91 2169 -91 
Q 1331 -91 842 396 
Q 353 884 353 1716 
Q 353 2575 817 3079 
Q 1281 3584 2069 3584 
Q 2775 3584 3186 3129 
Q 3597 2675 3597 1894 
z
M 3022 2063 
Q 3016 2534 2758 2815 
Q 2500 3097 2075 3097 
Q 1594 3097 1305 2825 
Q 1016 2553 972 2059 
L 3022 2063 
z
" transform="scale(0.015625)"/>
      <path id="DejaVuSans-6e" d="M 3513 2113 
L 3513 0 
L 2938 0 
L 2938 2094 
Q 2938 2591 2744 2837 
Q 2550 3084 2163 3084 
Q 1697 3084 1428 2787 
Q 1159 2491 1159 1978 
L 1159 0 
L 581 0 
L 581 3500 
L 1159 3500 
L 1159 2956 
Q 1366 3272 1645 3428 
Q 1925 3584 2291 3584 
Q 2894 3584 3203 3211 
Q 3513 2838 3513 2113 
z
" transform="scale(0.015625)"/>
     </defs>
     <use xlink:href="#DejaVuSans-53"/>
     <use xlink:href="#DejaVuSans-70" x="63.476562"/>
     <use xlink:href="#DejaVuSans-61" x="126.953125"/>
     <use xlink:href="#DejaVuSans-74" x="188.232422"/>
     <use xlink:href="#DejaVuSans-69" x="227.441406"/>
     <use xlink:href="#DejaVuSans-61" x="255.224609"/>
     <use xlink:href="#DejaVuSans-6c" x="316.503906"/>
     <use xlink:href="#DejaVuSans-20" x="344.287109"/>
     <use xlink:href="#DejaVuSans-61" x="376.074219"/>
     <use xlink:href="#DejaVuSans-75" x="437.353516"/>
     <use xlink:href="#DejaVuSans-74" x="500.732422"/>
     <use xlink:href="#DejaVuSans-6f" x="539.941406"/>
     <use xlink:href="#DejaVuSans-63" x="601.123047"/>
     <use xlink:href="#DejaVuSans-6f" x="656.103516"/>
     <use xlink:href="#DejaVuSans-72" x="717.285156"/>
     <use xlink:href="#DejaVuSans-72" x="756.648438"/>
     <use xlink:href="#DejaVuSans-65" x="795.511719"/>
     <use xlink:href="#DejaVuSans-6c" x="857.035156"/>
     <use xlink:href="#DejaVuSans-61" x="884.818359"/>
     <use xlink:href="#DejaVuSans-74" x="946.097656"/>
     <use xlink:href="#DejaVuSans-69" x="985.306641"/>
     <use xlink:href="#DejaVuSans-6f" x="1013.089844"/>
     <use xlink:href="#DejaVuSans-6e" x="1074.271484"/>
    </g>
    <!-- (normalized Moran's I) -->
    <g transform="translate(25.397371 54.192) scale(0.12 -0.12)">
     <defs>
      <path id="DejaVuSans-28" d="M 1984 4856 
Q 1566 4138 1362 3434 
Q 1159 2731 1159 2009 
Q 1159 1288 1364 580 
Q 1569 -128 1984 -844 
L 1484 -844 
Q 1016 -109 783 600 
Q 550 1309 550 2009 
Q 550 2706 781 3412 
Q 1013 4119 1484 4856 
L 1984 4856 
z
" transform="scale(0.015625)"/>
      <path id="DejaVuSans-6d" d="M 3328 2828 
Q 3544 3216 3844 3400 
Q 4144 3584 4550 3584 
Q 5097 3584 5394 3201 
Q 5691 2819 5691 2113 
L 5691 0 
L 5113 0 
L 5113 2094 
Q 5113 2597 4934 2840 
Q 4756 3084 4391 3084 
Q 3944 3084 3684 2787 
Q 3425 2491 3425 1978 
L 3425 0 
L 2847 0 
L 2847 2094 
Q 2847 2600 2669 2842 
Q 2491 3084 2119 3084 
Q 1678 3084 1418 2786 
Q 1159 2488 1159 1978 
L 1159 0 
L 581 0 
L 581 3500 
L 1159 3500 
L 1159 2956 
Q 1356 3278 1631 3431 
Q 1906 3584 2284 3584 
Q 2666 3584 2933 3390 
Q 3200 3197 3328 2828 
z
" transform="scale(0.015625)"/>
      <path id="DejaVuSans-7a" d="M 353 3500 
L 3084 3500 
L 3084 2975 
L 922 459 
L 3084 459 
L 3084 0 
L 275 0 
L 275 525 
L 2438 3041 
L 353 3041 
L 353 3500 
z
" transform="scale(0.015625)"/>
      <path id="DejaVuSans-64" d="M 2906 2969 
L 2906 4863 
L 3481 4863 
L 3481 0 
L 2906 0 
L 2906 525 
Q 2725 213 2448 61 
Q 2172 -91 1784 -91 
Q 1150 -91 751 415 
Q 353 922 353 1747 
Q 353 2572 751 3078 
Q 1150 3584 1784 3584 
Q 2172 3584 2448 3432 
Q 2725 3281 2906 2969 
z
M 947 1747 
Q 947 1113 1208 752 
Q 1469 391 1925 391 
Q 2381 391 2643 752 
Q 2906 1113 2906 1747 
Q 2906 2381 2643 2742 
Q 2381 3103 1925 3103 
Q 1469 3103 1208 2742 
Q 947 2381 947 1747 
z
" transform="scale(0.015625)"/>
      <path id="DejaVuSans-4d" d="M 628 4666 
L 1569 4666 
L 2759 1491 
L 3956 4666 
L 4897 4666 
L 4897 0 
L 4281 0 
L 4281 4097 
L 3078 897 
L 2444 897 
L 1241 4097 
L 1241 0 
L 628 0 
L 628 4666 
z
" transform="scale(0.015625)"/>
      <path id="DejaVuSans-27" d="M 1147 4666 
L 1147 2931 
L 616 2931 
L 616 4666 
L 1147 4666 
z
" transform="scale(0.015625)"/>
      <path id="DejaVuSans-73" d="M 2834 3397 
L 2834 2853 
Q 2591 2978 2328 3040 
Q 2066 3103 1784 3103 
Q 1356 3103 1142 2972 
Q 928 2841 928 2578 
Q 928 2378 1081 2264 
Q 1234 2150 1697 2047 
L 1894 2003 
Q 2506 1872 2764 1633 
Q 3022 1394 3022 966 
Q 3022 478 2636 193 
Q 2250 -91 1575 -91 
Q 1294 -91 989 -36 
Q 684 19 347 128 
L 347 722 
Q 666 556 975 473 
Q 1284 391 1588 391 
Q 1994 391 2212 530 
Q 2431 669 2431 922 
Q 2431 1156 2273 1281 
Q 2116 1406 1581 1522 
L 1381 1569 
Q 847 1681 609 1914 
Q 372 2147 372 2553 
Q 372 3047 722 3315 
Q 1072 3584 1716 3584 
Q 2034 3584 2315 3537 
Q 2597 3491 2834 3397 
z
" transform="scale(0.015625)"/>
      <path id="DejaVuSans-49" d="M 628 4666 
L 1259 4666 
L 1259 0 
L 628 0 
L 628 4666 
z
" transform="scale(0.015625)"/>
      <path id="DejaVuSans-29" d="M 513 4856 
L 1013 4856 
Q 1481 4119 1714 3412 
Q 1947 2706 1947 2009 
Q 1947 1309 1714 600 
Q 1481 -109 1013 -844 
L 513 -844 
Q 928 -128 1133 580 
Q 1338 1288 1338 2009 
Q 1338 2731 1133 3434 
Q 928 4138 513 4856 
z
" transform="scale(0.015625)"/>
     </defs>
     <use xlink:href="#DejaVuSans-28"/>
     <use xlink:href="#DejaVuSans-6e" x="39.013672"/>
     <use xlink:href="#DejaVuSans-6f" x="102.392578"/>
     <use xlink:href="#DejaVuSans-72" x="163.574219"/>
     <use xlink:href="#DejaVuSans-6d" x="202.9375"/>
     <use xlink:href="#DejaVuSans-61" x="300.349609"/>
     <use xlink:href="#DejaVuSans-6c" x="361.628906"/>
     <use xlink:href="#DejaVuSans-69" x="389.412109"/>
     <use xlink:href="#DejaVuSans-7a" x="417.195312"/>
     <use xlink:href="#DejaVuSans-65" x="469.685547"/>
     <use xlink:href="#DejaVuSans-64" x="531.208984"/>
     <use xlink:href="#DejaVuSans-20" x="594.685547"/>
     <use xlink:href="#DejaVuSans-4d" x="626.472656"/>
     <use xlink:href="#DejaVuSans-6f" x="712.751953"/>
     <use xlink:href="#DejaVuSans-72" x="773.933594"/>
     <use xlink:href="#DejaVuSans-61" x="815.046875"/>
     <use xlink:href="#DejaVuSans-6e" x="876.326172"/>
     <use xlink:href="#DejaVuSans-27" x="939.705078"/>
     <use xlink:href="#DejaVuSans-73" x="967.195312"/>
     <use xlink:href="#DejaVuSans-20" x="1019.294922"/>
     <use xlink:href="#DejaVuSans-49" x="1051.082031"/>
     <use xlink:href="#DejaVuSans-29" x="1080.574219"/>
    </g>
   </g>
  </g>
  <g id="axes_2">
   <g id="patch_27">
    <path d="M 184.477941 187.704 
L 315.772059 187.704 
L 315.772059 60.192 
L 184.477941 60.192 
z
" style="fill: #ffffff"/>
   </g>
   <g id="patch_28">
    <path d="M 290.907074 187.704 
L 291.629277 187.704 
L 291.629277 184.376877 
L 290.907074 184.376877 
z
" clip-path="url(#p0c40f55257)" style="fill: #1f77b4"/>
   </g>
   <g id="patch_29">
    <path d="M 291.629277 187.704 
L 292.35148 187.704 
L 292.35148 186.040438 
L 291.629277 186.040438 
z
" clip-path="url(#p0c40f55257)" style="fill: #1f77b4"/>
   </g>
   <g id="patch_30">
    <path d="M 292.35148 187.704 
L 293.073684 187.704 
L 293.073684 185.208658 
L 292.35148 185.208658 
z
" clip-path="url(#p0c40f55257)" style="fill: #1f77b4"/>
   </g>
   <g id="patch_31">
    <path d="M 293.073684 187.704 
L 293.795887 187.704 
L 293.795887 181.881534 
L 293.073684 181.881534 
z
" clip-path="url(#p0c40f55257)" style="fill: #1f77b4"/>
   </g>
   <g id="patch_32">
    <path d="M 293.795887 187.704 
L 294.51809 187.704 
L 294.51809 179.386192 
L 293.795887 179.386192 
z
" clip-path="url(#p0c40f55257)" style="fill: #1f77b4"/>
   </g>
   <g id="patch_33">
    <path d="M 294.51809 187.704 
L 295.240294 187.704 
L 295.240294 179.386192 
L 294.51809 179.386192 
z
" clip-path="url(#p0c40f55257)" style="fill: #1f77b4"/>
   </g>
   <g id="patch_34">
    <path d="M 295.240294 187.704 
L 295.962497 187.704 
L 295.962497 173.563726 
L 295.240294 173.563726 
z
" clip-path="url(#p0c40f55257)" style="fill: #1f77b4"/>
   </g>
   <g id="patch_35">
    <path d="M 295.962497 187.704 
L 296.6847 187.704 
L 296.6847 166.909479 
L 295.962497 166.909479 
z
" clip-path="url(#p0c40f55257)" style="fill: #1f77b4"/>
   </g>
   <g id="patch_36">
    <path d="M 296.6847 187.704 
L 297.406904 187.704 
L 297.406904 155.264548 
L 296.6847 155.264548 
z
" clip-path="url(#p0c40f55257)" style="fill: #1f77b4"/>
   </g>
   <g id="patch_37">
    <path d="M 297.406904 187.704 
L 298.129107 187.704 
L 298.129107 133.638247 
L 297.406904 133.638247 
z
" clip-path="url(#p0c40f55257)" style="fill: #1f77b4"/>
   </g>
   <g id="patch_38">
    <path d="M 298.129107 187.704 
L 298.85131 187.704 
L 298.85131 87.058521 
L 298.129107 87.058521 
z
" clip-path="url(#p0c40f55257)" style="fill: #1f77b4"/>
   </g>
   <g id="patch_39">
    <path d="M 298.85131 187.704 
L 299.573514 187.704 
L 299.573514 97.03989 
L 298.85131 97.03989 
z
" clip-path="url(#p0c40f55257)" style="fill: #1f77b4"/>
   </g>
   <g id="patch_40">
    <path d="M 299.573514 187.704 
L 300.295717 187.704 
L 300.295717 81.236055 
L 299.573514 81.236055 
z
" clip-path="url(#p0c40f55257)" style="fill: #1f77b4"/>
   </g>
   <g id="patch_41">
    <path d="M 300.295717 187.704 
L 301.01792 187.704 
L 301.01792 66.264 
L 300.295717 66.264 
z
" clip-path="url(#p0c40f55257)" style="fill: #1f77b4"/>
   </g>
   <g id="patch_42">
    <path d="M 301.01792 187.704 
L 301.740123 187.704 
L 301.740123 74.581808 
L 301.01792 74.581808 
z
" clip-path="url(#p0c40f55257)" style="fill: #1f77b4"/>
   </g>
   <g id="patch_43">
    <path d="M 301.740123 187.704 
L 302.462327 187.704 
L 302.462327 108.684822 
L 301.740123 108.684822 
z
" clip-path="url(#p0c40f55257)" style="fill: #1f77b4"/>
   </g>
   <g id="patch_44">
    <path d="M 302.462327 187.704 
L 303.18453 187.704 
L 303.18453 146.94674 
L 302.462327 146.94674 
z
" clip-path="url(#p0c40f55257)" style="fill: #1f77b4"/>
   </g>
   <g id="patch_45">
    <path d="M 303.18453 187.704 
L 303.906733 187.704 
L 303.906733 170.236603 
L 303.18453 170.236603 
z
" clip-path="url(#p0c40f55257)" style="fill: #1f77b4"/>
   </g>
   <g id="patch_46">
    <path d="M 303.906733 187.704 
L 304.628937 187.704 
L 304.628937 179.386192 
L 303.906733 179.386192 
z
" clip-path="url(#p0c40f55257)" style="fill: #1f77b4"/>
   </g>
   <g id="patch_47">
    <path d="M 304.628937 187.704 
L 305.35114 187.704 
L 305.35114 185.208658 
L 304.628937 185.208658 
z
" clip-path="url(#p0c40f55257)" style="fill: #1f77b4"/>
   </g>
   <g id="matplotlib.axis_3">
    <g id="xtick_3">
     <g id="line2d_8">
      <g>
       <use xlink:href="#m2f66700e71" x="184.477941" y="187.704" style="stroke: #000000; stroke-width: 0.8"/>
      </g>
     </g>
     <g id="text_8">
      <!-- 0.00 -->
      <g transform="translate(173.345129 202.302438) scale(0.1 -0.1)">
       <use xlink:href="#DejaVuSans-30"/>
       <use xlink:href="#DejaVuSans-2e" x="63.623047"/>
       <use xlink:href="#DejaVuSans-30" x="95.410156"/>
       <use xlink:href="#DejaVuSans-30" x="159.033203"/>
      </g>
     </g>
    </g>
    <g id="xtick_4">
     <g id="line2d_9">
      <g>
       <use xlink:href="#m2f66700e71" x="217.301471" y="187.704" style="stroke: #000000; stroke-width: 0.8"/>
      </g>
     </g>
     <g id="text_9">
      <!-- 0.25 -->
      <g transform="translate(206.168658 202.302438) scale(0.1 -0.1)">
       <defs>
        <path id="DejaVuSans-32" d="M 1228 531 
L 3431 531 
L 3431 0 
L 469 0 
L 469 531 
Q 828 903 1448 1529 
Q 2069 2156 2228 2338 
Q 2531 2678 2651 2914 
Q 2772 3150 2772 3378 
Q 2772 3750 2511 3984 
Q 2250 4219 1831 4219 
Q 1534 4219 1204 4116 
Q 875 4013 500 3803 
L 500 4441 
Q 881 4594 1212 4672 
Q 1544 4750 1819 4750 
Q 2544 4750 2975 4387 
Q 3406 4025 3406 3419 
Q 3406 3131 3298 2873 
Q 3191 2616 2906 2266 
Q 2828 2175 2409 1742 
Q 1991 1309 1228 531 
z
" transform="scale(0.015625)"/>
       </defs>
       <use xlink:href="#DejaVuSans-30"/>
       <use xlink:href="#DejaVuSans-2e" x="63.623047"/>
       <use xlink:href="#DejaVuSans-32" x="95.410156"/>
       <use xlink:href="#DejaVuSans-35" x="159.033203"/>
      </g>
     </g>
    </g>
    <g id="xtick_5">
     <g id="line2d_10">
      <g>
       <use xlink:href="#m2f66700e71" x="250.125" y="187.704" style="stroke: #000000; stroke-width: 0.8"/>
      </g>
     </g>
     <g id="text_10">
      <!-- 0.50 -->
      <g transform="translate(238.992188 202.302438) scale(0.1 -0.1)">
       <use xlink:href="#DejaVuSans-30"/>
       <use xlink:href="#DejaVuSans-2e" x="63.623047"/>
       <use xlink:href="#DejaVuSans-35" x="95.410156"/>
       <use xlink:href="#DejaVuSans-30" x="159.033203"/>
      </g>
     </g>
    </g>
    <g id="xtick_6">
     <g id="line2d_11">
      <g>
       <use xlink:href="#m2f66700e71" x="282.948529" y="187.704" style="stroke: #000000; stroke-width: 0.8"/>
      </g>
     </g>
     <g id="text_11">
      <!-- 0.75 -->
      <g transform="translate(271.815717 202.302438) scale(0.1 -0.1)">
       <defs>
        <path id="DejaVuSans-37" d="M 525 4666 
L 3525 4666 
L 3525 4397 
L 1831 0 
L 1172 0 
L 2766 4134 
L 525 4134 
L 525 4666 
z
" transform="scale(0.015625)"/>
       </defs>
       <use xlink:href="#DejaVuSans-30"/>
       <use xlink:href="#DejaVuSans-2e" x="63.623047"/>
       <use xlink:href="#DejaVuSans-37" x="95.410156"/>
       <use xlink:href="#DejaVuSans-35" x="159.033203"/>
      </g>
     </g>
    </g>
    <g id="xtick_7">
     <g id="line2d_12">
      <g>
       <use xlink:href="#m2f66700e71" x="315.772059" y="187.704" style="stroke: #000000; stroke-width: 0.8"/>
      </g>
     </g>
     <g id="text_12">
      <!-- 1.00 -->
      <g transform="translate(304.639246 202.302438) scale(0.1 -0.1)">
       <use xlink:href="#DejaVuSans-31"/>
       <use xlink:href="#DejaVuSans-2e" x="63.623047"/>
       <use xlink:href="#DejaVuSans-30" x="95.410156"/>
       <use xlink:href="#DejaVuSans-30" x="159.033203"/>
      </g>
     </g>
    </g>
   </g>
   <g id="matplotlib.axis_4">
    <g id="ytick_5">
     <g id="line2d_13">
      <g>
       <use xlink:href="#m74c2619387" x="184.477941" y="187.704" style="stroke: #000000; stroke-width: 0.8"/>
      </g>
     </g>
     <g id="text_13">
      <!-- 0 -->
      <g transform="translate(171.115441 191.503219) scale(0.1 -0.1)">
       <use xlink:href="#DejaVuSans-30"/>
      </g>
     </g>
    </g>
    <g id="ytick_6">
     <g id="line2d_14">
      <g>
       <use xlink:href="#m74c2619387" x="184.477941" y="164.827314" style="stroke: #000000; stroke-width: 0.8"/>
      </g>
     </g>
     <g id="text_14">
      <!-- 5 -->
      <g transform="translate(171.115441 168.626533) scale(0.1 -0.1)">
       <use xlink:href="#DejaVuSans-35"/>
      </g>
     </g>
    </g>
    <g id="ytick_7">
     <g id="line2d_15">
      <g>
       <use xlink:href="#m74c2619387" x="184.477941" y="141.950628" style="stroke: #000000; stroke-width: 0.8"/>
      </g>
     </g>
     <g id="text_15">
      <!-- 10 -->
      <g transform="translate(164.752941 145.749847) scale(0.1 -0.1)">
       <use xlink:href="#DejaVuSans-31"/>
       <use xlink:href="#DejaVuSans-30" x="63.623047"/>
      </g>
     </g>
    </g>
    <g id="ytick_8">
     <g id="line2d_16">
      <g>
       <use xlink:href="#m74c2619387" x="184.477941" y="119.073943" style="stroke: #000000; stroke-width: 0.8"/>
      </g>
     </g>
     <g id="text_16">
      <!-- 15 -->
      <g transform="translate(164.752941 122.873161) scale(0.1 -0.1)">
       <use xlink:href="#DejaVuSans-31"/>
       <use xlink:href="#DejaVuSans-35" x="63.623047"/>
      </g>
     </g>
    </g>
    <g id="ytick_9">
     <g id="line2d_17">
      <g>
       <use xlink:href="#m74c2619387" x="184.477941" y="96.197257" style="stroke: #000000; stroke-width: 0.8"/>
      </g>
     </g>
     <g id="text_17">
      <!-- 20 -->
      <g transform="translate(164.752941 99.996476) scale(0.1 -0.1)">
       <use xlink:href="#DejaVuSans-32"/>
       <use xlink:href="#DejaVuSans-30" x="63.623047"/>
      </g>
     </g>
    </g>
    <g id="ytick_10">
     <g id="line2d_18">
      <g>
       <use xlink:href="#m74c2619387" x="184.477941" y="73.320571" style="stroke: #000000; stroke-width: 0.8"/>
      </g>
     </g>
     <g id="text_18">
      <!-- 25 -->
      <g transform="translate(164.752941 77.11979) scale(0.1 -0.1)">
       <use xlink:href="#DejaVuSans-32"/>
       <use xlink:href="#DejaVuSans-35" x="63.623047"/>
      </g>
     </g>
    </g>
   </g>
   <g id="line2d_19">
    <path d="M 308.15562 187.704 
L 308.15562 60.192 
" clip-path="url(#p0c40f55257)" style="fill: none; stroke-dasharray: 5.55,2.4; stroke-dashoffset: 0; stroke: #ff0000; stroke-width: 1.5"/>
   </g>
   <g id="patch_48">
    <path d="M 184.477941 187.704 
L 184.477941 60.192 
" style="fill: none; stroke: #000000; stroke-width: 0.8; stroke-linejoin: miter; stroke-linecap: square"/>
   </g>
   <g id="patch_49">
    <path d="M 315.772059 187.704 
L 315.772059 60.192 
" style="fill: none; stroke: #000000; stroke-width: 0.8; stroke-linejoin: miter; stroke-linecap: square"/>
   </g>
   <g id="patch_50">
    <path d="M 184.477941 187.704 
L 315.772059 187.704 
" style="fill: none; stroke: #000000; stroke-width: 0.8; stroke-linejoin: miter; stroke-linecap: square"/>
   </g>
   <g id="patch_51">
    <path d="M 184.477941 60.192 
L 315.772059 60.192 
" style="fill: none; stroke: #000000; stroke-width: 0.8; stroke-linejoin: miter; stroke-linecap: square"/>
   </g>
   <g id="text_19">
    <!-- Cortical symmetry -->
    <g transform="translate(194.80125 40.754625) scale(0.12 -0.12)">
     <defs>
      <path id="DejaVuSans-43" d="M 4122 4306 
L 4122 3641 
Q 3803 3938 3442 4084 
Q 3081 4231 2675 4231 
Q 1875 4231 1450 3742 
Q 1025 3253 1025 2328 
Q 1025 1406 1450 917 
Q 1875 428 2675 428 
Q 3081 428 3442 575 
Q 3803 722 4122 1019 
L 4122 359 
Q 3791 134 3420 21 
Q 3050 -91 2638 -91 
Q 1578 -91 968 557 
Q 359 1206 359 2328 
Q 359 3453 968 4101 
Q 1578 4750 2638 4750 
Q 3056 4750 3426 4639 
Q 3797 4528 4122 4306 
z
" transform="scale(0.015625)"/>
      <path id="DejaVuSans-79" d="M 2059 -325 
Q 1816 -950 1584 -1140 
Q 1353 -1331 966 -1331 
L 506 -1331 
L 506 -850 
L 844 -850 
Q 1081 -850 1212 -737 
Q 1344 -625 1503 -206 
L 1606 56 
L 191 3500 
L 800 3500 
L 1894 763 
L 2988 3500 
L 3597 3500 
L 2059 -325 
z
" transform="scale(0.015625)"/>
     </defs>
     <use xlink:href="#DejaVuSans-43"/>
     <use xlink:href="#DejaVuSans-6f" x="69.824219"/>
     <use xlink:href="#DejaVuSans-72" x="131.005859"/>
     <use xlink:href="#DejaVuSans-74" x="172.119141"/>
     <use xlink:href="#DejaVuSans-69" x="211.328125"/>
     <use xlink:href="#DejaVuSans-63" x="239.111328"/>
     <use xlink:href="#DejaVuSans-61" x="294.091797"/>
     <use xlink:href="#DejaVuSans-6c" x="355.371094"/>
     <use xlink:href="#DejaVuSans-20" x="383.154297"/>
     <use xlink:href="#DejaVuSans-73" x="414.941406"/>
     <use xlink:href="#DejaVuSans-79" x="467.041016"/>
     <use xlink:href="#DejaVuSans-6d" x="526.220703"/>
     <use xlink:href="#DejaVuSans-6d" x="623.632812"/>
     <use xlink:href="#DejaVuSans-65" x="721.044922"/>
     <use xlink:href="#DejaVuSans-74" x="782.568359"/>
     <use xlink:href="#DejaVuSans-72" x="821.777344"/>
     <use xlink:href="#DejaVuSans-79" x="862.890625"/>
    </g>
    <!-- (rho across vertices) -->
    <g transform="translate(188.71875 54.192) scale(0.12 -0.12)">
     <defs>
      <path id="DejaVuSans-68" d="M 3513 2113 
L 3513 0 
L 2938 0 
L 2938 2094 
Q 2938 2591 2744 2837 
Q 2550 3084 2163 3084 
Q 1697 3084 1428 2787 
Q 1159 2491 1159 1978 
L 1159 0 
L 581 0 
L 581 4863 
L 1159 4863 
L 1159 2956 
Q 1366 3272 1645 3428 
Q 1925 3584 2291 3584 
Q 2894 3584 3203 3211 
Q 3513 2838 3513 2113 
z
" transform="scale(0.015625)"/>
      <path id="DejaVuSans-76" d="M 191 3500 
L 800 3500 
L 1894 563 
L 2988 3500 
L 3597 3500 
L 2284 0 
L 1503 0 
L 191 3500 
z
" transform="scale(0.015625)"/>
     </defs>
     <use xlink:href="#DejaVuSans-28"/>
     <use xlink:href="#DejaVuSans-72" x="39.013672"/>
     <use xlink:href="#DejaVuSans-68" x="78.376953"/>
     <use xlink:href="#DejaVuSans-6f" x="141.755859"/>
     <use xlink:href="#DejaVuSans-20" x="202.9375"/>
     <use xlink:href="#DejaVuSans-61" x="234.724609"/>
     <use xlink:href="#DejaVuSans-63" x="296.003906"/>
     <use xlink:href="#DejaVuSans-72" x="350.984375"/>
     <use xlink:href="#DejaVuSans-6f" x="389.847656"/>
     <use xlink:href="#DejaVuSans-73" x="451.029297"/>
     <use xlink:href="#DejaVuSans-73" x="503.128906"/>
     <use xlink:href="#DejaVuSans-20" x="555.228516"/>
     <use xlink:href="#DejaVuSans-76" x="587.015625"/>
     <use xlink:href="#DejaVuSans-65" x="646.195312"/>
     <use xlink:href="#DejaVuSans-72" x="707.71875"/>
     <use xlink:href="#DejaVuSans-74" x="748.832031"/>
     <use xlink:href="#DejaVuSans-69" x="788.041016"/>
     <use xlink:href="#DejaVuSans-63" x="815.824219"/>
     <use xlink:href="#DejaVuSans-65" x="870.804688"/>
     <use xlink:href="#DejaVuSans-73" x="932.328125"/>
     <use xlink:href="#DejaVuSans-29" x="984.427734"/>
    </g>
   </g>
  </g>
  <g id="axes_3"/>
  <g id="text_20">
   <!-- pet: D23 - Schaefer400 -->
   <g transform="translate(164.776875 16.318125) scale(0.12 -0.12)">
    <defs>
     <path id="DejaVuSans-Bold-70" d="M 1656 506 
L 1656 -1331 
L 538 -1331 
L 538 3500 
L 1656 3500 
L 1656 2988 
Q 1888 3294 2169 3439 
Q 2450 3584 2816 3584 
Q 3463 3584 3878 3070 
Q 4294 2556 4294 1747 
Q 4294 938 3878 423 
Q 3463 -91 2816 -91 
Q 2450 -91 2169 54 
Q 1888 200 1656 506 
z
M 2400 2772 
Q 2041 2772 1848 2508 
Q 1656 2244 1656 1747 
Q 1656 1250 1848 986 
Q 2041 722 2400 722 
Q 2759 722 2948 984 
Q 3138 1247 3138 1747 
Q 3138 2247 2948 2509 
Q 2759 2772 2400 2772 
z
" transform="scale(0.015625)"/>
     <path id="DejaVuSans-Bold-65" d="M 4031 1759 
L 4031 1441 
L 1416 1441 
Q 1456 1047 1700 850 
Q 1944 653 2381 653 
Q 2734 653 3104 758 
Q 3475 863 3866 1075 
L 3866 213 
Q 3469 63 3072 -14 
Q 2675 -91 2278 -91 
Q 1328 -91 801 392 
Q 275 875 275 1747 
Q 275 2603 792 3093 
Q 1309 3584 2216 3584 
Q 3041 3584 3536 3087 
Q 4031 2591 4031 1759 
z
M 2881 2131 
Q 2881 2450 2695 2645 
Q 2509 2841 2209 2841 
Q 1884 2841 1681 2658 
Q 1478 2475 1428 2131 
L 2881 2131 
z
" transform="scale(0.015625)"/>
     <path id="DejaVuSans-Bold-74" d="M 1759 4494 
L 1759 3500 
L 2913 3500 
L 2913 2700 
L 1759 2700 
L 1759 1216 
Q 1759 972 1856 886 
Q 1953 800 2241 800 
L 2816 800 
L 2816 0 
L 1856 0 
Q 1194 0 917 276 
Q 641 553 641 1216 
L 641 2700 
L 84 2700 
L 84 3500 
L 641 3500 
L 641 4494 
L 1759 4494 
z
" transform="scale(0.015625)"/>
     <path id="DejaVuSans-Bold-3a" d="M 716 3500 
L 1844 3500 
L 1844 2291 
L 716 2291 
L 716 3500 
z
M 716 1209 
L 1844 1209 
L 1844 0 
L 716 0 
L 716 1209 
z
" transform="scale(0.015625)"/>
     <path id="DejaVuSans-Bold-20" transform="scale(0.015625)"/>
     <path id="DejaVuSans-Bold-44" d="M 1791 3756 
L 1791 909 
L 2222 909 
Q 2959 909 3348 1275 
Q 3738 1641 3738 2338 
Q 3738 3031 3350 3393 
Q 2963 3756 2222 3756 
L 1791 3756 
z
M 588 4666 
L 1856 4666 
Q 2919 4666 3439 4514 
Q 3959 4363 4331 4000 
Q 4659 3684 4818 3271 
Q 4978 2859 4978 2338 
Q 4978 1809 4818 1395 
Q 4659 981 4331 666 
Q 3956 303 3431 151 
Q 2906 0 1856 0 
L 588 0 
L 588 4666 
z
" transform="scale(0.015625)"/>
     <path id="DejaVuSans-Bold-32" d="M 1844 884 
L 3897 884 
L 3897 0 
L 506 0 
L 506 884 
L 2209 2388 
Q 2438 2594 2547 2791 
Q 2656 2988 2656 3200 
Q 2656 3528 2436 3728 
Q 2216 3928 1850 3928 
Q 1569 3928 1234 3808 
Q 900 3688 519 3450 
L 519 4475 
Q 925 4609 1322 4679 
Q 1719 4750 2100 4750 
Q 2938 4750 3402 4381 
Q 3866 4013 3866 3353 
Q 3866 2972 3669 2642 
Q 3472 2313 2841 1759 
L 1844 884 
z
" transform="scale(0.015625)"/>
     <path id="DejaVuSans-Bold-33" d="M 2981 2516 
Q 3453 2394 3698 2092 
Q 3944 1791 3944 1325 
Q 3944 631 3412 270 
Q 2881 -91 1863 -91 
Q 1503 -91 1142 -33 
Q 781 25 428 141 
L 428 1069 
Q 766 900 1098 814 
Q 1431 728 1753 728 
Q 2231 728 2486 893 
Q 2741 1059 2741 1369 
Q 2741 1688 2480 1852 
Q 2219 2016 1709 2016 
L 1228 2016 
L 1228 2791 
L 1734 2791 
Q 2188 2791 2409 2933 
Q 2631 3075 2631 3366 
Q 2631 3634 2415 3781 
Q 2200 3928 1806 3928 
Q 1516 3928 1219 3862 
Q 922 3797 628 3669 
L 628 4550 
Q 984 4650 1334 4700 
Q 1684 4750 2022 4750 
Q 2931 4750 3382 4451 
Q 3834 4153 3834 3553 
Q 3834 3144 3618 2883 
Q 3403 2622 2981 2516 
z
" transform="scale(0.015625)"/>
     <path id="DejaVuSans-Bold-2d" d="M 347 2297 
L 2309 2297 
L 2309 1388 
L 347 1388 
L 347 2297 
z
" transform="scale(0.015625)"/>
     <path id="DejaVuSans-Bold-53" d="M 3834 4519 
L 3834 3531 
Q 3450 3703 3084 3790 
Q 2719 3878 2394 3878 
Q 1963 3878 1756 3759 
Q 1550 3641 1550 3391 
Q 1550 3203 1689 3098 
Q 1828 2994 2194 2919 
L 2706 2816 
Q 3484 2659 3812 2340 
Q 4141 2022 4141 1434 
Q 4141 663 3683 286 
Q 3225 -91 2284 -91 
Q 1841 -91 1394 -6 
Q 947 78 500 244 
L 500 1259 
Q 947 1022 1364 901 
Q 1781 781 2169 781 
Q 2563 781 2772 912 
Q 2981 1044 2981 1288 
Q 2981 1506 2839 1625 
Q 2697 1744 2272 1838 
L 1806 1941 
Q 1106 2091 782 2419 
Q 459 2747 459 3303 
Q 459 4000 909 4375 
Q 1359 4750 2203 4750 
Q 2588 4750 2994 4692 
Q 3400 4634 3834 4519 
z
" transform="scale(0.015625)"/>
     <path id="DejaVuSans-Bold-63" d="M 3366 3391 
L 3366 2478 
Q 3138 2634 2908 2709 
Q 2678 2784 2431 2784 
Q 1963 2784 1702 2511 
Q 1441 2238 1441 1747 
Q 1441 1256 1702 982 
Q 1963 709 2431 709 
Q 2694 709 2930 787 
Q 3166 866 3366 1019 
L 3366 103 
Q 3103 6 2833 -42 
Q 2563 -91 2291 -91 
Q 1344 -91 809 395 
Q 275 881 275 1747 
Q 275 2613 809 3098 
Q 1344 3584 2291 3584 
Q 2566 3584 2833 3536 
Q 3100 3488 3366 3391 
z
" transform="scale(0.015625)"/>
     <path id="DejaVuSans-Bold-68" d="M 4056 2131 
L 4056 0 
L 2931 0 
L 2931 347 
L 2931 1625 
Q 2931 2084 2911 2256 
Q 2891 2428 2841 2509 
Q 2775 2619 2662 2680 
Q 2550 2741 2406 2741 
Q 2056 2741 1856 2470 
Q 1656 2200 1656 1722 
L 1656 0 
L 538 0 
L 538 4863 
L 1656 4863 
L 1656 2988 
Q 1909 3294 2193 3439 
Q 2478 3584 2822 3584 
Q 3428 3584 3742 3212 
Q 4056 2841 4056 2131 
z
" transform="scale(0.015625)"/>
     <path id="DejaVuSans-Bold-61" d="M 2106 1575 
Q 1756 1575 1579 1456 
Q 1403 1338 1403 1106 
Q 1403 894 1545 773 
Q 1688 653 1941 653 
Q 2256 653 2472 879 
Q 2688 1106 2688 1447 
L 2688 1575 
L 2106 1575 
z
M 3816 1997 
L 3816 0 
L 2688 0 
L 2688 519 
Q 2463 200 2181 54 
Q 1900 -91 1497 -91 
Q 953 -91 614 226 
Q 275 544 275 1050 
Q 275 1666 698 1953 
Q 1122 2241 2028 2241 
L 2688 2241 
L 2688 2328 
Q 2688 2594 2478 2717 
Q 2269 2841 1825 2841 
Q 1466 2841 1156 2769 
Q 847 2697 581 2553 
L 581 3406 
Q 941 3494 1303 3539 
Q 1666 3584 2028 3584 
Q 2975 3584 3395 3211 
Q 3816 2838 3816 1997 
z
" transform="scale(0.015625)"/>
     <path id="DejaVuSans-Bold-66" d="M 2841 4863 
L 2841 4128 
L 2222 4128 
Q 1984 4128 1890 4042 
Q 1797 3956 1797 3744 
L 1797 3500 
L 2753 3500 
L 2753 2700 
L 1797 2700 
L 1797 0 
L 678 0 
L 678 2700 
L 122 2700 
L 122 3500 
L 678 3500 
L 678 3744 
Q 678 4316 997 4589 
Q 1316 4863 1984 4863 
L 2841 4863 
z
" transform="scale(0.015625)"/>
     <path id="DejaVuSans-Bold-72" d="M 3138 2547 
Q 2991 2616 2845 2648 
Q 2700 2681 2553 2681 
Q 2122 2681 1889 2404 
Q 1656 2128 1656 1613 
L 1656 0 
L 538 0 
L 538 3500 
L 1656 3500 
L 1656 2925 
Q 1872 3269 2151 3426 
Q 2431 3584 2822 3584 
Q 2878 3584 2943 3579 
Q 3009 3575 3134 3559 
L 3138 2547 
z
" transform="scale(0.015625)"/>
     <path id="DejaVuSans-Bold-34" d="M 2356 3675 
L 1038 1722 
L 2356 1722 
L 2356 3675 
z
M 2156 4666 
L 3494 4666 
L 3494 1722 
L 4159 1722 
L 4159 850 
L 3494 850 
L 3494 0 
L 2356 0 
L 2356 850 
L 288 850 
L 288 1881 
L 2156 4666 
z
" transform="scale(0.015625)"/>
     <path id="DejaVuSans-Bold-30" d="M 2944 2338 
Q 2944 3213 2780 3570 
Q 2616 3928 2228 3928 
Q 1841 3928 1675 3570 
Q 1509 3213 1509 2338 
Q 1509 1453 1675 1090 
Q 1841 728 2228 728 
Q 2613 728 2778 1090 
Q 2944 1453 2944 2338 
z
M 4147 2328 
Q 4147 1169 3647 539 
Q 3147 -91 2228 -91 
Q 1306 -91 806 539 
Q 306 1169 306 2328 
Q 306 3491 806 4120 
Q 1306 4750 2228 4750 
Q 3147 4750 3647 4120 
Q 4147 3491 4147 2328 
z
" transform="scale(0.015625)"/>
    </defs>
    <use xlink:href="#DejaVuSans-Bold-70"/>
    <use xlink:href="#DejaVuSans-Bold-65" x="71.582031"/>
    <use xlink:href="#DejaVuSans-Bold-74" x="139.404297"/>
    <use xlink:href="#DejaVuSans-Bold-3a" x="187.207031"/>
    <use xlink:href="#DejaVuSans-Bold-20" x="227.197266"/>
    <use xlink:href="#DejaVuSans-Bold-44" x="262.011719"/>
    <use xlink:href="#DejaVuSans-Bold-32" x="345.019531"/>
    <use xlink:href="#DejaVuSans-Bold-33" x="414.599609"/>
    <use xlink:href="#DejaVuSans-Bold-20" x="484.179688"/>
    <use xlink:href="#DejaVuSans-Bold-2d" x="518.994141"/>
    <use xlink:href="#DejaVuSans-Bold-20" x="560.498047"/>
    <use xlink:href="#DejaVuSans-Bold-53" x="595.3125"/>
    <use xlink:href="#DejaVuSans-Bold-63" x="667.333984"/>
    <use xlink:href="#DejaVuSans-Bold-68" x="726.611328"/>
    <use xlink:href="#DejaVuSans-Bold-61" x="797.802734"/>
    <use xlink:href="#DejaVuSans-Bold-65" x="865.283203"/>
    <use xlink:href="#DejaVuSans-Bold-66" x="933.105469"/>
    <use xlink:href="#DejaVuSans-Bold-65" x="976.611328"/>
    <use xlink:href="#DejaVuSans-Bold-72" x="1044.433594"/>
    <use xlink:href="#DejaVuSans-Bold-34" x="1093.75"/>
    <use xlink:href="#DejaVuSans-Bold-30" x="1163.330078"/>
    <use xlink:href="#DejaVuSans-Bold-30" x="1232.910156"/>
   </g>
  </g>
 </g>
 <defs>
  <clipPath id="p89f9935433">
   <rect x="26.925" y="60.192" width="131.294118" height="127.512"/>
  </clipPath>
  <clipPath id="p0c40f55257">
   <rect x="184.477941" y="60.192" width="131.294118" height="127.512"/>
  </clipPath>
 </defs>
</svg>
